<svg><svg id="ico-photo" width="128" height="128" viewBox="0 0 128 128" xmlns="http://www.w3.org/2000/svg" xmlns:xlink="http://www.w3.org/1999/xlink"><defs><style>@font-face{font-family:ifont;src:url(//at.alicdn.com/t/font_1442373896_4754455.eot?#iefix) format(&amp;quot;embedded-opentype&amp;quot;),url(//at.alicdn.com/t/font_1442373896_4754455.woff) format(&amp;quot;woff&amp;quot;),url(//at.alicdn.com/t/font_1442373896_4754455.ttf) format(&amp;quot;truetype&amp;quot;),url(//at.alicdn.com/t/font_1442373896_4754455.svg#ifont) format(&amp;quot;svg&amp;quot;)}</style></defs><path d="M904.081 877.435h-784.16c-45.586 0-82.545-36.96-82.545-82.544V237.724c0-45.585 36.96-82.543 82.545-82.543h175.403l51.59-82.544c0-11.365 29.867-20.635 41.271-20.635h247.63c11.408 0 41.273 9.27 41.273 20.635l51.59 82.544h175.405c45.585 0 82.542 36.96 82.542 82.543V794.89c-.001 45.585-36.96 82.545-82.544 82.545zM512 237.724c-148.16 0-268.266 120.107-268.266 268.265 0 148.16 120.107 268.267 268.266 268.267s268.265-120.108 268.265-268.267c0-148.158-120.107-268.265-268.265-268.265zm0 453.987c-102.575 0-185.722-83.147-185.722-185.722S409.425 320.266 512 320.266s185.722 83.147 185.722 185.722S614.575 691.711 512 691.711z" fill="#272636" transform="scale(.125)" class="transform-group"/></svg><svg id="ico-code" width="128.125" height="128" viewBox="0 0 128.125 128" xmlns="http://www.w3.org/2000/svg" xmlns:xlink="http://www.w3.org/1999/xlink"><defs><style>@font-face{font-family:ifont;src:url(//at.alicdn.com/t/font_1442373896_4754455.eot?#iefix) format(&amp;quot;embedded-opentype&amp;quot;),url(//at.alicdn.com/t/font_1442373896_4754455.woff) format(&amp;quot;woff&amp;quot;),url(//at.alicdn.com/t/font_1442373896_4754455.ttf) format(&amp;quot;truetype&amp;quot;),url(//at.alicdn.com/t/font_1442373896_4754455.svg#ifont) format(&amp;quot;svg&amp;quot;)}</style></defs><path d="M240.496 272c-13.504 0-25.664 5.632-34.384 14.608l-.048-.048-189.216 189.2C6.608 484.56 0 497.456 0 512c0 13.504 5.616 25.664 14.592 34.368l-.032.064 192 192 .048-.064C215.248 746.784 226.992 752 240 752c26.512 0 48-21.488 48-48 0-12.992-5.216-24.752-13.616-33.392l.048-.048-158.304-158.32 157.808-157.808-.048-.048c8.976-8.72 14.608-20.88 14.608-34.384 0-26.512-21.488-48-48-48zm784 240c0-14.56-6.608-27.44-16.848-36.24l-189.216-189.2-.032.048C809.664 277.632 797.504 272 784 272c-26.512 0-48 21.488-48 48 0 13.504 5.632 25.664 14.608 34.384l-.048.048L908.368 512.24l-158.32 158.32.048.048c-8.384 8.64-13.616 20.384-13.616 33.392 0 26.512 21.488 48 48 48 12.992 0 24.752-5.216 33.408-13.632l.048.064 192-192-.048-.064c8.992-8.704 14.608-20.864 14.608-34.368zM640 128c-20.8 0-38.496 13.232-45.168 31.712L339.2 830.784A47.697 47.697 0 0 0 336 848c0 26.512 21.488 48 48 48 20.8 0 38.496-13.232 45.168-31.712L684.8 193.216c2.08-5.344 3.2-11.136 3.2-17.216 0-26.512-21.488-48-48-48z" fill="#272636" transform="scale(.125)" class="transform-group"/></svg><svg id="ico-contact" width="128" height="128" viewBox="0 0 128 128" xmlns="http://www.w3.org/2000/svg" xmlns:xlink="http://www.w3.org/1999/xlink"><defs><style>@font-face{font-family:ifont;src:url(//at.alicdn.com/t/font_1442373896_4754455.eot?#iefix) format(&amp;quot;embedded-opentype&amp;quot;),url(//at.alicdn.com/t/font_1442373896_4754455.woff) format(&amp;quot;woff&amp;quot;),url(//at.alicdn.com/t/font_1442373896_4754455.ttf) format(&amp;quot;truetype&amp;quot;),url(//at.alicdn.com/t/font_1442373896_4754455.svg#ifont) format(&amp;quot;svg&amp;quot;)}</style></defs><path d="M793.334 823.067c-22.236 12.205 24.927 136.546 24.927 136.546s-259-100.5-282.703-100.5H512c-42.027 0-81.42-10.224-117.793-26.763 52.628-18.704 96.121-45.47 106.014-45.47h29.448c211.417 0 382.827-182.814 382.827-408.364 0-6.879-.662-13.617-.99-20.45 30.058 50.557 48.107 110.066 48.107 174.38 0 126.606-67.519 236.389-166.28 290.62zM512 717.76h-23.558c-23.703 0-282.703 100.5-282.703 100.5s47.163-124.341 24.927-136.546C131.912 627.483 64.387 517.7 64.387 391.049c0-180.41 137.113-326.662 306.261-326.662H512c169.148 0 306.261 146.252 306.261 326.662.001 180.46-137.11 326.712-306.26 326.712zM299.974 347.09c-26.009 0-47.118 21.109-47.118 47.117s21.11 47.118 47.118 47.118 47.117-21.11 47.117-47.118c-.001-26.008-21.109-47.117-47.117-47.117zm141.35 0c-26.008 0-47.117 21.109-47.117 47.117s21.109 47.118 47.118 47.118 47.117-21.11 47.117-47.118-21.109-47.117-47.117-47.117zm141.351 0c-26.008 0-47.117 21.109-47.117 47.117s21.109 47.118 47.117 47.118 47.118-21.11 47.118-47.118-21.108-47.117-47.118-47.117z" fill="#272636" transform="scale(.125)" class="transform-group"/></svg><svg id="ico-arrowright" width="128" height="128" viewBox="0 0 128 128" xmlns="http://www.w3.org/2000/svg" xmlns:xlink="http://www.w3.org/1999/xlink"><defs><style>@font-face{font-family:ifont;src:url(//at.alicdn.com/t/font_1442373896_4754455.eot?#iefix) format(&amp;quot;embedded-opentype&amp;quot;),url(//at.alicdn.com/t/font_1442373896_4754455.woff) format(&amp;quot;woff&amp;quot;),url(//at.alicdn.com/t/font_1442373896_4754455.ttf) format(&amp;quot;truetype&amp;quot;),url(//at.alicdn.com/t/font_1442373896_4754455.svg#ifont) format(&amp;quot;svg&amp;quot;)}</style></defs><path d="M512 1001.241c270.93 0 490.562-219.632 490.562-490.562S782.93 20.117 512 20.117 21.438 239.749 21.438 510.679 241.07 1001.241 512 1001.241zM409.458 347.158l49.056-49.056 212.577 212.577-212.577 212.577-49.056-49.056 163.52-163.52-163.52-163.52z" fill="#272636" transform="scale(.125)" class="transform-group"/></svg><svg id="ico-chacha" width="128" height="128" viewBox="0 0 128 128" xmlns="http://www.w3.org/2000/svg" xmlns:xlink="http://www.w3.org/1999/xlink"><defs><style>@font-face{font-family:ifont;src:url(//at.alicdn.com/t/font_1442373896_4754455.eot?#iefix) format(&amp;quot;embedded-opentype&amp;quot;),url(//at.alicdn.com/t/font_1442373896_4754455.woff) format(&amp;quot;woff&amp;quot;),url(//at.alicdn.com/t/font_1442373896_4754455.ttf) format(&amp;quot;truetype&amp;quot;),url(//at.alicdn.com/t/font_1442373896_4754455.svg#ifont) format(&amp;quot;svg&amp;quot;)}</style></defs><path d="M512 0C229.242 0 .021 229.22.021 511.979S229.242 1023.957 512 1023.957s511.979-229.22 511.979-511.978S794.758 0 512 0zm235.234 691.862l-55.35 55.349L512 555.335 332.115 747.212l-55.349-55.349 181.615-193.722L276.766 304.42l55.349-55.348 179.884 191.877L691.883 249.07l55.348 55.348L565.617 498.14l181.617 193.721z" fill="#272636" transform="scale(.125)" class="transform-group"/></svg><svg id="ico-exit" width="128" height="128" viewBox="0 0 128 128" xmlns="http://www.w3.org/2000/svg" xmlns:xlink="http://www.w3.org/1999/xlink"><defs><style>@font-face{font-family:ifont;src:url(//at.alicdn.com/t/font_1442373896_4754455.eot?#iefix) format(&amp;quot;embedded-opentype&amp;quot;),url(//at.alicdn.com/t/font_1442373896_4754455.woff) format(&amp;quot;woff&amp;quot;),url(//at.alicdn.com/t/font_1442373896_4754455.ttf) format(&amp;quot;truetype&amp;quot;),url(//at.alicdn.com/t/font_1442373896_4754455.svg#ifont) format(&amp;quot;svg&amp;quot;)}</style></defs><path d="M646.976 511.936L971.648 187.2c35.84-35.84 35.84-93.952 0-129.792-35.968-35.968-94.016-35.968-129.856 0L517.056 382.08 192.384 57.408c-35.904-35.968-94.08-35.968-129.792 0-36.032 35.84-36.032 93.952 0 129.792L387.2 511.936l-324.608 324.8c-36.032 35.84-36.032 94.016 0 129.856 35.776 35.84 93.952 35.84 129.792 0l324.672-324.736 324.736 324.736c35.904 35.84 93.952 35.84 129.856 0 35.84-35.904 35.84-94.08 0-129.856l-324.672-324.8z" fill="#fff" transform="scale(.125)" class="transform-group"/></svg><svg id="ico-mail" width="128" height="128" viewBox="0 0 128 128" xmlns="http://www.w3.org/2000/svg" xmlns:xlink="http://www.w3.org/1999/xlink"><defs><style>@font-face{font-family:ifont;src:url(//at.alicdn.com/t/font_1442373896_4754455.eot?#iefix) format(&amp;quot;embedded-opentype&amp;quot;),url(//at.alicdn.com/t/font_1442373896_4754455.woff) format(&amp;quot;woff&amp;quot;),url(//at.alicdn.com/t/font_1442373896_4754455.ttf) format(&amp;quot;truetype&amp;quot;),url(//at.alicdn.com/t/font_1442373896_4754455.svg#ifont) format(&amp;quot;svg&amp;quot;)}</style></defs><path d="M142.232 831.574c-43.162 0-78.276-36.858-78.276-82.163V274.172c0-45.341 35.114-82.228 78.276-82.228h738.754c43.162 0 78.276 36.887 78.276 82.228v475.24c0 45.304-35.115 82.162-78.276 82.162H142.232zm708.466-64.344l-220.275-191.5-35.131 32.36c-22.982 20.941-51.121 31.537-83.682 31.537-32.596 0-60.72-10.613-83.592-31.544l-35.142-32.355L172.612 767.23h678.086zm45.264-44.786v-410.39L676.054 528.11l219.908 194.335zm-768.674 0l219.9-194.334-219.9-216.055v410.389zM457.293 536.59c30.867 28.872 46.572 34.927 54.316 34.927 7.746 0 23.455-6.06 54.313-34.934l286.591-280.295H170.698L457.293 536.59z" fill="#272636" transform="scale(.125)" class="transform-group"/></svg><svg id="ico-setting" width="16" height="16" viewBox="0 0 16 16" xmlns="http://www.w3.org/2000/svg" xmlns:xlink="http://www.w3.org/1999/xlink"><defs><style>@font-face{font-family:ifont;src:url(//at.alicdn.com/t/font_1442373896_4754455.eot?#iefix) format(&amp;quot;embedded-opentype&amp;quot;),url(//at.alicdn.com/t/font_1442373896_4754455.woff) format(&amp;quot;woff&amp;quot;),url(//at.alicdn.com/t/font_1442373896_4754455.ttf) format(&amp;quot;truetype&amp;quot;),url(//at.alicdn.com/t/font_1442373896_4754455.svg#ifont) format(&amp;quot;svg&amp;quot;)}</style></defs><path d="M1024 567.808V451.292l-16.464-5.359-124.73-40.719-33.28-80.38 63.987-135.341-82.425-82.46-15.442 7.861-116.939 59.474-80.38-33.315L567.807.035H451.293l-5.359 16.5-40.719 124.73-80.31 33.244-135.447-63.916-82.425 82.354 7.862 15.442 59.44 117.045-33.246 80.274L.071 456.263v116.55l16.463 5.36L141.3 618.89l33.245 80.345-63.952 135.377 82.354 82.425 15.442-7.862 117.01-59.439 80.344 33.28L456.228 1024h116.586l5.359-16.464 40.683-124.73 80.345-33.28 135.412 64.022 82.425-82.46-7.862-15.442-59.439-116.939 33.28-80.38L1024 567.807zM511.965 675.193c-90.11 0-163.158-73.047-163.158-163.193 0-90.11 73.047-163.157 163.158-163.157 90.18 0 163.192 73.047 163.192 163.157 0 90.146-73.011 163.193-163.192 163.193z" fill="#272636" transform="scale(.01563)" class="transform-group"/></svg></svg>