<?xml version="1.0" standalone="no"?><!DOCTYPE svg PUBLIC "-//W3C//DTD SVG 1.1//EN" "http://www.w3.org/Graphics/SVG/1.1/DTD/svg11.dtd">
<svg >
	
<svg id="ico-photo" width="128" height="128" viewBox="0 0 128 128" version="1.1" xmlns="http://www.w3.org/2000/svg" xmlns:xlink="http://www.w3.org/1999/xlink"><defs><style type="text/css"><![CDATA[
@font-face { font-family: ifont; src: url("//at.alicdn.com/t/font_1442373896_4754455.eot?#iefix") format("embedded-opentype"), url("//at.alicdn.com/t/font_1442373896_4754455.woff") format("woff"), url("//at.alicdn.com/t/font_1442373896_4754455.ttf") format("truetype"), url("//at.alicdn.com/t/font_1442373896_4754455.svg#ifont") format("svg"); }
]]></style></defs><g class="transform-group"><g transform="scale(0.125, 0.125)"><path d="M904.081408 877.43488 119.92064 877.43488c-45.585408 0-82.54464-36.960256-82.54464-82.543616L37.376 237.723648c0-45.584384 36.959232-82.542592 82.54464-82.542592l175.403008 0 51.590144-82.543616c0-11.365376 29.867008-20.635648 41.271296-20.635648l247.630848 0c11.40736 0 41.27232 9.270272 41.27232 20.635648l51.58912 82.543616 175.40608 0c45.584384 0 82.541568 36.959232 82.541568 82.542592L986.625024 794.89024C986.624 840.474624 949.665792 877.43488 904.081408 877.43488zM512 237.723648c-148.159488 0-268.266496 120.107008-268.266496 268.265472 0 148.159488 120.107008 268.266496 268.266496 268.266496S780.265472 654.147584 780.265472 505.98912l0 0C780.265472 357.830656 660.158464 237.723648 512 237.723648L512 237.723648zM512 691.710976c-102.575104 0-185.721856-83.146752-185.721856-185.721856S409.424896 320.26624 512 320.26624s185.721856 83.146752 185.721856 185.721856S614.575104 691.710976 512 691.710976L512 691.710976z" fill="#272636"></path></g></g></svg>

<svg id="ico-code" width="128.125" height="128" viewBox="0 0 128.125 128" version="1.1" xmlns="http://www.w3.org/2000/svg" xmlns:xlink="http://www.w3.org/1999/xlink"><defs><style type="text/css"><![CDATA[
@font-face { font-family: ifont; src: url("//at.alicdn.com/t/font_1442373896_4754455.eot?#iefix") format("embedded-opentype"), url("//at.alicdn.com/t/font_1442373896_4754455.woff") format("woff"), url("//at.alicdn.com/t/font_1442373896_4754455.ttf") format("truetype"), url("//at.alicdn.com/t/font_1442373896_4754455.svg#ifont") format("svg"); }
]]></style></defs><g class="transform-group"><g transform="scale(0.125, 0.125)"><path d="M240.496 272c-13.504 0-25.664 5.632-34.384 14.608l-0.048-0.048L16.848 475.76C6.608 484.56 0 497.456 0 512c0 13.504 5.616 25.664 14.592 34.368L14.56 546.432l192 192 0.048-0.064C215.248 746.784 226.992 752 240 752c26.512 0 48-21.488 48-48 0-12.992-5.216-24.752-13.616-33.392l0.048-0.048-158.304-158.32 157.808-157.808-0.048-0.048c8.976-8.72 14.608-20.88 14.608-34.384C288.496 293.488 267.008 272 240.496 272zM1024.496 512c0-14.56-6.608-27.44-16.848-36.24L818.432 286.56l-0.032 0.048C809.664 277.632 797.504 272 784 272c-26.512 0-48 21.488-48 48 0 13.504 5.632 25.664 14.608 34.384l-0.048 0.048 157.808 157.808-158.32 158.32 0.048 0.048c-8.384 8.64-13.616 20.384-13.616 33.392 0 26.512 21.488 48 48 48 12.992 0 24.752-5.216 33.408-13.632l0.048 0.064 192-192-0.048-0.064C1018.88 537.664 1024.496 525.504 1024.496 512zM640 128c-20.8 0-38.496 13.232-45.168 31.712L339.2 830.784C337.136 836.128 336 841.936 336 848c0 26.512 21.488 48 48 48 20.8 0 38.496-13.232 45.168-31.712L684.8 193.216C686.88 187.872 688 182.08 688 176 688 149.488 666.512 128 640 128z" fill="#272636"></path></g></g></svg>

<svg id="ico-contact" width="128" height="128" viewBox="0 0 128 128" version="1.1" xmlns="http://www.w3.org/2000/svg" xmlns:xlink="http://www.w3.org/1999/xlink"><defs><style type="text/css"><![CDATA[
@font-face { font-family: ifont; src: url("//at.alicdn.com/t/font_1442373896_4754455.eot?#iefix") format("embedded-opentype"), url("//at.alicdn.com/t/font_1442373896_4754455.woff") format("woff"), url("//at.alicdn.com/t/font_1442373896_4754455.ttf") format("truetype"), url("//at.alicdn.com/t/font_1442373896_4754455.svg#ifont") format("svg"); }
]]></style></defs><g class="transform-group"><g transform="scale(0.125, 0.125)"><path d="M793.33376 823.066624c-22.23616 12.205056 24.927232 136.546304 24.927232 136.546304s-259.00032-100.50048-282.702848-100.50048L512 859.112448c-42.027008 0-81.419264-10.223616-117.792768-26.76224l0 0c52.627456-18.704384 96.120832-45.469696 106.013696-45.469696l29.448192 0c211.417088 0 382.826496-182.81472 382.826496-408.364032 0-6.879232-0.661504-13.617152-0.989184-20.450304 30.057472 50.556928 48.106496 110.065664 48.106496 174.380032C959.612928 659.05152 892.094464 768.83456 793.33376 823.066624zM512 717.760512l-23.558144 0c-23.702528 0-282.702848 100.50048-282.702848 100.50048s47.163392-124.341248 24.927232-136.546304C131.91168 627.482624 64.387072 517.699584 64.387072 391.049216c0-180.410368 137.112576-326.662144 306.260992-326.662144l141.350912 0c169.148416 0 306.260992 146.251776 306.260992 326.662144C818.260992 571.508736 681.14944 717.760512 512 717.760512zM299.973632 347.08992c-26.008576 0-47.117312 21.108736-47.117312 47.117312s21.108736 47.117312 47.117312 47.117312 47.117312-21.108736 47.117312-47.117312C347.08992 368.198656 325.982208 347.08992 299.973632 347.08992zM441.324544 347.08992c-26.008576 0-47.117312 21.108736-47.117312 47.117312s21.108736 47.117312 47.117312 47.117312 47.117312-21.108736 47.117312-47.117312S467.33312 347.08992 441.324544 347.08992zM582.675456 347.08992c-26.008576 0-47.117312 21.108736-47.117312 47.117312s21.108736 47.117312 47.117312 47.117312 47.117312-21.108736 47.117312-47.117312S608.685056 347.08992 582.675456 347.08992z" fill="#272636"></path></g></g></svg>

<svg id="ico-arrowright" width="128" height="128" viewBox="0 0 128 128" version="1.1" xmlns="http://www.w3.org/2000/svg" xmlns:xlink="http://www.w3.org/1999/xlink"><defs><style type="text/css"><![CDATA[
@font-face { font-family: ifont; src: url("//at.alicdn.com/t/font_1442373896_4754455.eot?#iefix") format("embedded-opentype"), url("//at.alicdn.com/t/font_1442373896_4754455.woff") format("woff"), url("//at.alicdn.com/t/font_1442373896_4754455.ttf") format("truetype"), url("//at.alicdn.com/t/font_1442373896_4754455.svg#ifont") format("svg"); }
]]></style></defs><g class="transform-group"><g transform="scale(0.125, 0.125)"><path d="M512 1001.241c270.93 0 490.562-219.632 490.562-490.562s-219.632-490.562-490.562-490.562c-270.93 0-490.562 219.632-490.562 490.562 0 270.93 219.632 490.562 490.562 490.562zM409.458 347.158l49.056-49.056 212.577 212.577-212.577 212.577-49.056-49.056 163.52-163.52-163.52-163.52z" fill="#272636"></path></g></g></svg>

<svg id="ico-chacha" width="128" height="128" viewBox="0 0 128 128" version="1.1" xmlns="http://www.w3.org/2000/svg" xmlns:xlink="http://www.w3.org/1999/xlink"><defs><style type="text/css"><![CDATA[
@font-face { font-family: ifont; src: url("//at.alicdn.com/t/font_1442373896_4754455.eot?#iefix") format("embedded-opentype"), url("//at.alicdn.com/t/font_1442373896_4754455.woff") format("woff"), url("//at.alicdn.com/t/font_1442373896_4754455.ttf") format("truetype"), url("//at.alicdn.com/t/font_1442373896_4754455.svg#ifont") format("svg"); }
]]></style></defs><g class="transform-group"><g transform="scale(0.125, 0.125)"><path d="M511.999998 0c-282.757922 0-511.978511 229.220588-511.978511 511.978511s229.220588 511.978511 511.978511 511.978511 511.978511-229.220588 511.978511-511.978511S794.75792 0 511.999998 0zM747.233534 691.862437l-55.348586 55.348586L511.999998 555.334971 332.115048 747.212046l-55.348586-55.348586 181.614337-193.722096-181.614337-193.722096 55.348586-55.348586 179.883927 191.877075 179.883927-191.877075 55.348586 55.348586-181.614337 193.722096L747.233534 691.862437z" fill="#272636"></path></g></g></svg>

<svg id="ico-exit" width="128" height="128" viewBox="0 0 128 128" version="1.1" xmlns="http://www.w3.org/2000/svg" xmlns:xlink="http://www.w3.org/1999/xlink"><defs><style type="text/css"><![CDATA[
@font-face { font-family: ifont; src: url("//at.alicdn.com/t/font_1442373896_4754455.eot?#iefix") format("embedded-opentype"), url("//at.alicdn.com/t/font_1442373896_4754455.woff") format("woff"), url("//at.alicdn.com/t/font_1442373896_4754455.ttf") format("truetype"), url("//at.alicdn.com/t/font_1442373896_4754455.svg#ifont") format("svg"); }
]]></style></defs><g class="transform-group"><g transform="scale(0.125, 0.125)"><path d="M646.976 511.936l324.672-324.736c35.84-35.84 35.84-93.952 0-129.792-35.968-35.968-94.016-35.968-129.856 0l-324.736 324.672-324.672-324.672c-35.904-35.968-94.08-35.968-129.792 0-36.032 35.84-36.032 93.952 0 129.792l324.608 324.736-324.608 324.8c-36.032 35.84-36.032 94.016 0 129.856 35.776 35.84 93.952 35.84 129.792 0l324.672-324.736 324.736 324.736c35.904 35.84 93.952 35.84 129.856 0 35.84-35.904 35.84-94.08 0-129.856L646.976 511.936z" fill="#fff"></path></g></g></svg>

<svg id="ico-mail" width="128" height="128" viewBox="0 0 128 128" version="1.1" xmlns="http://www.w3.org/2000/svg" xmlns:xlink="http://www.w3.org/1999/xlink"><defs><style type="text/css"><![CDATA[
@font-face { font-family: ifont; src: url("//at.alicdn.com/t/font_1442373896_4754455.eot?#iefix") format("embedded-opentype"), url("//at.alicdn.com/t/font_1442373896_4754455.woff") format("woff"), url("//at.alicdn.com/t/font_1442373896_4754455.ttf") format("truetype"), url("//at.alicdn.com/t/font_1442373896_4754455.svg#ifont") format("svg"); }
]]></style></defs><g class="transform-group"><g transform="scale(0.125, 0.125)"><path d="M142.232398 831.574433c-43.162032 0-78.276784-36.858466-78.276784-82.163301L63.955614 274.172383c0-45.341674 35.114752-82.228793 78.276784-82.228793l738.753397 0c43.162032 0 78.275761 36.887119 78.275761 82.228793L959.261557 749.411131c0 45.304835-35.114752 82.163301-78.275761 82.163301L142.232398 831.574433zM850.697979 767.229962 630.423133 575.729463l-35.131125 32.360012c-22.982434 20.941961-51.121308 31.537274-83.681888 31.537274-32.596396 0-60.720943-10.612709-83.591837-31.543414l-35.142381-32.354895-220.263589 191.501522L850.697979 767.229962zM895.961882 722.443943 895.961882 312.054155 676.054403 528.108886 895.961882 722.443943zM127.288035 722.443943l219.899292-194.334034L127.288035 312.055179 127.288035 722.443943zM457.293027 536.590048c30.867008 28.871561 46.571688 34.926464 54.31607 34.926464 7.745405 0 23.455201-6.060019 54.313-34.933627l286.591227-280.294824L170.697707 256.288061 457.293027 536.590048z" fill="#272636"></path></g></g></svg>

<svg id="ico-setting" width="16" height="16" viewBox="0 0 16 16" version="1.1" xmlns="http://www.w3.org/2000/svg" xmlns:xlink="http://www.w3.org/1999/xlink"><defs><style type="text/css"><![CDATA[
@font-face { font-family: ifont; src: url("//at.alicdn.com/t/font_1442373896_4754455.eot?#iefix") format("embedded-opentype"), url("//at.alicdn.com/t/font_1442373896_4754455.woff") format("woff"), url("//at.alicdn.com/t/font_1442373896_4754455.ttf") format("truetype"), url("//at.alicdn.com/t/font_1442373896_4754455.svg#ifont") format("svg"); }
]]></style></defs><g class="transform-group"><g transform="scale(0.015625, 0.015625)"><path d="M1024 567.807753l0-116.515871-16.463816-5.358672-124.730152-40.71886-33.280176-80.380087 63.98678-135.341734-82.424843-82.460098-15.441438 7.861737-116.938924 59.474213-80.380087-33.315431-50.51959-141.017696-116.515871 0-5.358672 16.49907-40.71886 124.730152-80.309578 33.244922-135.447497-63.916271-82.424843 82.354335 7.861737 15.441438 59.438959 117.044688-33.244922 80.274323-141.017696 50.554844 0 116.551126 16.463816 5.358672 124.765407 40.71886 33.244922 80.344832-63.951525 135.376988 82.354335 82.424843 15.441438-7.861737 117.009433-59.438959 80.344832 33.280176 50.484335 140.982442 116.58638 0 5.358672-16.463816 40.683605-124.730152 80.344832-33.280176 135.412243 64.022034 82.424843-82.460098-7.861737-15.441438-59.438959-116.938924 33.280176-80.380087L1024 567.807753zM511.964746 675.192729c-90.110308 0-163.157474-73.047167-163.157474-163.192729 0-90.110308 73.047167-163.157474 163.157474-163.157474 90.180817 0 163.192729 73.047167 163.192729 163.157474C675.157474 602.145562 602.145562 675.192729 511.964746 675.192729z" fill="#272636"></path></g></g></svg>














</svg>
